<svg xmlns="http://www.w3.org/2000/svg" viewBox="0 0 640 640">
<style type="text/css">
	.st0{fill:#FFFFFF;}
</style>
<rect width="640" height="640" rx="120" fill="#ffffff"/>
<g transform="translate(22.35,185)"><g>
	<path d="M492.7,45c0-9,0-17.3,0-26.2c-2.8-0.2-5.5-0.4-8.5-0.7c0-1.6,0-3.2,0-5c7.9,0,15.7,0,24,0c0.1,1.6,0.2,3.1,0.2,5
		c-3.2,0.2-5.9,0.4-9,0.6c0,8.8,0,17.2,0,26c4.1,0,8.1,0,12.7,0c0-10.4,0-20.8,0-31.5c3.4,0,6.3,0,9.7,0c1.7,6.2,3.4,12.5,5.5,20.1
		c1.4-5.2,2.5-9,3.5-12.8c2.1-7.9,2-7.9,11.1-7.2c0,10.3,0,20.7,0,31.9c4.6,0,8.7,0.2,12.8,0c6.3-0.3,10.9,2.5,14.1,7.7
		c3.4,5.5,1.5,10.6-1.7,15.4c-14.1,21.2-28.3,42.3-42.5,63.5c-24.7,36.9-49.5,73.8-74.1,110.8c-6.6,10-14.7,14.8-27.2,14.7
		C308.6,256.9,193.8,257,79,257c-16.3,0-32.6,0.3-48.9-0.2c-4-0.1-8.4-2-11.9-4.2c-7.1-4.5-7.7-9.4-2.9-16.2
		C56.5,177.7,97.7,119,139,60.4c2.4-3.4,5.2-6.5,8.2-9.4c4.8-4.5,10.4-6.6,17.2-6.5c98.8,0.3,197.6,0.4,296.4,0.5
		C471.3,45,481.7,45,492.7,45z M242.9,229c0,0.1,0,0.1,0,0.2c54,0,108-0.2,162,0.2c10,0.1,17.4-3.5,22.9-11.4
		c9.1-12.9,18.2-25.8,27.3-38.8c20.6-29.5,41.2-58.9,61.7-88.4c2.3-3.4,4.3-7,1.9-11.1c-2.5-4.2-6.1-7-11.3-6.9
		c-3.3,0-6.7-0.3-10-0.3c-77.3,0-154.6-0.1-231.9-0.1c-30.3,0-60.7,0.1-91,0c-7.6,0-13.1,2.6-17.6,9c-30.3,43.6-60.9,87-91.3,130.5
		c-4,5.8-3.6,10.1,2.2,14c2.7,1.8,6.4,3,9.7,3C132.6,229.1,187.8,229,242.9,229z M524.3,44.9c-1.8-7.2-3.5-13.7-5.2-20.2
		c-0.2,0.1-0.4,0.1-0.6,0.2c0,6.6,0,13.2,0,20C520.3,44.9,522,44.9,524.3,44.9z M535.9,44.9c0-6.9,0-13.2,0-19.5
		c-0.2,0-0.5-0.1-0.7-0.1c-1.6,6.4-3.2,12.8-4.9,19.6C532.5,44.9,534.1,44.9,535.9,44.9z"/>
	<path class="st0" d="M524.3,44.9c-2.3,0-3.9,0-5.8,0c0-6.7,0-13.4,0-20c0.2-0.1,0.4-0.1,0.6-0.2C520.7,31.2,522.4,37.8,524.3,44.9z
		"/>
	<path class="st0" d="M535.9,44.9c-1.8,0-3.4,0-5.6,0c1.7-6.8,3.3-13.2,4.9-19.6c0.2,0,0.5,0.1,0.7,0.1
		C535.9,31.7,535.9,38,535.9,44.9z"/>
	<path d="M214.7,155.5c-6.5,10.3-12.6,20-19.2,30.6c8.8,0,16.7,0.2,24.6-0.2c1.5-0.1,3.1-2.1,4.2-3.6c19.1-27.5,38.2-55,57.1-82.6
		c2-3,4.3-4.3,7.7-4.3c7.4,0.1,14.8,0,22.8,0c-7.5,11.3-14.9,22.4-22.2,33.4c-16.7,24.9-33.4,49.8-50.2,74.6c-1,1.5-3.1,3.3-4.8,3.4
		c-27,0.2-54,0.1-81.9,0.1c3.4-5.2,6.5-9.8,9.6-14.4c7.5-11,15.1-21.9,22.5-33c1.9-2.8,4-4.2,7.3-4.1
		C199.4,155.6,206.7,155.5,214.7,155.5z"/>
	<path d="M429.7,95.3c-11.5,16.7-22.4,32.8-33.6,48.8c-0.8,1.1-2.7,1.9-4.1,2c-7.8,0.2-15.6,0.1-24,0.1c6.1-9.8,12.3-19.7,18.9-30.3
		c-8.8,0-16.8-0.1-24.7,0.1c-1.2,0-2.6,1.7-3.5,3c-19.2,27.6-38.4,55.2-57.5,82.9c-2.1,3-4.1,4.6-8,4.4c-7.3-0.3-14.6-0.1-22.3-0.1
		c0.9-1.4,1.8-3.1,2.8-4.7c23.1-34.5,46.1-68.9,69.3-103.3c1.1-1.6,3.6-3.1,5.4-3.1c26.2-0.2,52.3-0.1,78.5-0.1
		C427.6,95,428.2,95.1,429.7,95.3z"/>
</g></g>
</svg>