<?xml version="1.0" encoding="utf-8"?>
<!-- Generator: Adobe Illustrator 28.2.0, SVG Export Plug-In . SVG Version: 6.00 Build 0)  -->
<svg version="1.1" id="Layer_1" xmlns="http://www.w3.org/2000/svg" xmlns:xlink="http://www.w3.org/1999/xlink" x="0px" y="0px"
	 viewBox="0 0 374.2 81.9" style="enable-background:new 0 0 374.2 81.9;" xml:space="preserve">
<style type="text/css">
	.st0{enable-background:new    ;}
</style>
<g class="st0">
	<path d="M25.7,67.3c-1.6,2-6.1,7.3-8.5,7.3c-1.5,0-2.4-1.8-2.4-3.2c0-4.7,4.6-11.6,19.1-20.8l8.9-16.2c2.9-5.3,5.1-11.2,5.9-17.4
		c-9.4,3.4-17.2,13.9-19,24.3c3.6-2.4,4.1-2.7,4.2-2.7c0.3,0,0.6,0.2,0.6,0.5c0,0.8-2.5,3.4-3.1,4.1c-1.6,1.9-4.4,5.7-7,5.7
		c-2.4,0-2.4-3.2-2.4-5.1c0-4.6,2.4-11,4.4-15C33,15.6,45.3,11.2,49.7,11.2c2.3,0,4.5,2.8,4.5,4.3c0,4.3-1.7,11.1-12.9,31.5l0.1,0.1
		l7.2-3.4l0.8,2.2l-11.1,5.7L25.7,67.3z"/>
	<path d="M61,53.3c-1.2,1-5.2,4.5-6.6,4.5c-1.7,0-5.4-4.4-5.5-7.9c-0.2-8.4,16-17,23.2-17.2c2.9-0.1,4.1,2.4,4.1,3.2
		c0,0.8-1.6,1.5-2.2,1.7c1.2,0.5,1.8,1.3,1.8,2.8c0,2.2-5.4,6.9-5.4,10c0,1.1,0.9,1.6,1.9,1.6c2.6,0,6.2-3.4,8.9-5.4l0.5,2.5
		C79,52.3,70.6,59.5,67.6,59.5c-2.1,0-3-1.6-3-3.6c0-2.2,1.5-5.7,2.3-7.5l-0.1-0.1L61,53.3z M53.5,51.5c0.1,0.3,0.3,1.5,1.2,1.3
		c1.2-0.3,3.2-0.1,15.6-13.5l-0.1-0.1C55.3,44.1,53.5,48.2,53.5,51.5z"/>
	<path d="M91.5,69c-0.6,0.7-2.4,3.4-3.4,3.4c-1.3,0-1.9-3.3-1.9-4.4c0-1.1,1.2-3.2,1.7-4l8.4-15.2l-0.1-0.1
		c-5.1,4.6-9.7,8.3-10.4,8.2c-1.7-0.1-4.7-3-4.9-8C80.6,40.7,91.3,32.2,93,32.1c0.9,0,2.7,2.2,2.7,3.1c0,2.6-7.1,9.6-9.1,11.3
		c-0.8,1.1-1.1,2.5-1.2,3.9c3.3-0.4,6.3-3.3,8.9-5.9c6.4-6.4,10.4-11,11.6-11.3c1.1-0.2,1.7,2.4,1.7,3.4c0,1.8-1.7,4.5-2.6,5.9
		l-9.2,14.8l0.1,0.1l13.9-13.3l0.5,2.5L91.5,69z"/>
	<path d="M107.2,69.1c-0.5,1-1.6,2.8-2.8,2.8c-1.4,0-1.8-1.8-1.8-3c-0.1-3.4,1.3-6.7,3.9-10.6c2.9-4.4,6-9.9,10.1-17.3l-0.1-0.1
		L106.5,51l-0.2-3.2l16.6-19.2c1.5-1.8,2.6-3.7,5-3.7c0.9,0,2.9,0.3,2.9,1.6c0,1.5-3.2,4.7-4.2,5.9c-2.1,2.4-4.1,4.9-5.3,7.9
		l0.1,0.1c2.7-2.1,9-6.5,12.4-6.5c1.7,0,2.6,1.4,2.6,3.2c0,3.7-3.1,8.4-10.1,15c5.4,0.4,6.6-0.7,13.3-6.9l0.4,3.1
		c-4.6,4.8-10.2,9.7-17,9.7c-1.7,0-2.9-0.5-4.4-1.3c-0.9,0.2-1.9,0.4-2.9,0.4c-0.9,0-1.7-0.2-2.5-0.4L107.2,69.1z M127,45.2
		c0.7-0.9,1.6-2.1,1.6-3.3c0-0.5-0.2-0.9-0.7-0.9c-1,0-4,2.1-4.8,2.7c-2.3,1.8-4.1,4.1-5.7,6.5c1.8-0.1,3.6,0.1,5.2,0.7L127,45.2z"
		/>
	<path d="M162.5,47.8c-3.8,4.8-10.7,11.1-16.9,11.1c-4.6,0-6.7-4.4-6.8-8.8c-0.2-8.8,8.8-17.9,16.9-17.8c2,0,4.5,0.5,4.5,3.2
		c0,3.3-3.1,8.3-15.1,12.5l-0.1,1.5c-0.2,2.6,1.9,3.4,3.9,3.4c4.4,0,9.7-4.9,13-7.7L162.5,47.8z M154.8,37c0-0.5-0.3-0.9-0.8-0.7
		c-3.1,0.9-6.7,4.1-8.4,8.6C151.1,42.8,154.9,38.1,154.8,37z"/>
	<path d="M184.8,47.8c-3.8,4.8-10.7,11.1-16.9,11.1c-4.6,0-6.7-4.4-6.8-8.8c-0.2-8.8,8.8-17.9,16.9-17.8c2,0,4.5,0.5,4.5,3.2
		c0,3.3-3.1,8.3-15.1,12.5l-0.1,1.5c-0.2,2.6,1.9,3.4,3.9,3.4c4.4,0,9.7-4.9,13-7.7L184.8,47.8z M177.1,37c0-0.5-0.3-0.9-0.8-0.7
		c-3.1,0.9-6.7,4.1-8.4,8.6C173.4,42.8,177.2,38.1,177.1,37z"/>
	<path d="M237.2,34.8c6.3,1.6,9.2,5.2,9.2,8.5c0,13.4-21.8,15.6-30.8,15.6c-2.4,0-10.1,0-10.1-3.9c0-1.4,2.2-5,3.2-6
		c0.8-0.7,4.4-2,5.4-2c0.3,0,0.5,0.1,0.5,0.5c0,0.7-0.6,1-1.1,1.3c-0.4,0.3-0.7,0.6-1.1,1v0.1c22.3,0.9,28.4-6.1,28.4-7.1
		c0-3.4-17.3-6.1-20.3-6.7c-3.1-0.5-6.4-1.6-6.4-5.7c0-2.2,1-7.1,2-9c1.9-3.4,13.2-9.8,26.9-9.8c2.6,0,5.2,0.3,7.9,0.9
		c1.4,0.3,1.6,0.9,1.6,2.2c0,5-1.6,6.1-5.2,7.7c-2.7,1.1-3.2,1.4-5.6,3.3c-0.4,0.3-1.1,0.7-1.6,0.7c-0.6,0-1-0.3-1-1
		c0-0.1,1.2-2.2,4.6-4.7l-0.1-0.1c-16.1,0.6-23.1,6.9-23.1,8.4C220.6,30,219.8,30.4,237.2,34.8z"/>
	<path d="M248,69.1c-0.5,1-1.6,2.8-2.8,2.8c-1.4,0-1.8-1.8-1.8-3c-0.1-3.4,1.3-6.7,3.9-10.6c2.9-4.4,6-9.9,10.1-17.3l-0.1-0.1
		L247.3,51l-0.2-3.2l16.6-19.2c1.5-1.8,2.6-3.7,5-3.7c0.9,0,2.9,0.3,2.9,1.6c0,1.5-3.2,4.7-4.2,5.9c-2.1,2.4-4.1,4.9-5.3,7.9
		l0.1,0.1c2.7-2.1,9-6.5,12.4-6.5c1.7,0,2.6,1.4,2.6,3.2c0,3.7-3.1,8.4-10.1,15c5.4,0.4,6.6-0.7,13.3-6.9l0.4,3.1
		c-4.6,4.8-10.2,9.7-17,9.7c-1.7,0-2.9-0.5-4.4-1.3c-0.9,0.2-1.9,0.4-2.9,0.4c-0.9,0-1.7-0.2-2.5-0.4L248,69.1z M267.8,45.2
		c0.7-0.9,1.6-2.1,1.6-3.3c0-0.5-0.2-0.9-0.7-0.9c-1,0-4,2.1-4.8,2.7c-2.3,1.8-4.1,4.1-5.7,6.5c1.8-0.1,3.6,0.1,5.2,0.7L267.8,45.2z
		"/>
	<path d="M305.6,47.7c-2.8,3.8-5.6,5.5-10.1,5.5c-2.6,2.9-5.7,5.1-9.6,5.1c-3.2,0-6.2-3.5-6.5-9.6c-0.1-5.1,2.2-8.4,5.7-11.3
		c3.4-3,7.9-4.8,11.7-5c1.4-0.1,3.4,0.6,3.4,2.4c0,1-0.8,1.4-1.4,1.8c1.9,0.5,2.2,2,2.2,4c0,3-1.2,5.3-2.4,7.9
		c2.7,0.5,4.5-2,6.4-3.6L305.6,47.7z M286.6,44.6c-1.4,1.5-2.6,4.1-2.6,6.2c0,2,1.2,2.6,2.7,2.6c2.1,0,3.4-1.3,4.8-2.7
		c-0.4-1.1-0.8-2-0.8-3.1c0-3.5,2.9-7.7,2.7-7.9C291.4,41,288.5,42.6,286.6,44.6z"/>
	<path d="M309.3,43.2c-2.2,3.7-4.8,5.5-7.5,8.4l-0.2-3c1.6-1.4,2.9-3.1,4.1-4.9c-1.3-0.1-1.7-0.7-1.7-2.1c0-4.9,6.4-9.7,7.9-9.7
		c0.6,0,1.1,0.5,1.1,1.1c0,0.7-0.2,1.3-0.4,1.9c5.9-0.9,9.3-1.7,9.9-0.9c0.9,1.3,1.4,2.4,1.5,3.6c0,2.1-1.2,3.1-2.6,4.4
		c-1.8,1.7-4.9,5-4.9,7.7c0,1.1,1,1.9,1.9,1.9c2.7,0,6.6-4.4,8.7-6.1l0.4,2.5c-2.4,2.9-9.6,10.4-13.1,10.4c-2.6,0-4.2-2.6-4.2-5.2
		c0-4.6,3.2-8.2,5.7-11.4l-0.1-0.1L309.3,43.2z"/>
	<path d="M350.2,29.8c-2.9,6.4-3.4,8.9-10.3,8.4c-2.1,3-5.7,8.5-5.7,12.5c0,1.5,0.4,2.4,1.9,2.4c2,0,4.2-2,10.7-7l0.3,3
		c-3.7,3.6-10.4,10.8-15.7,10.8c-2.4,0-3.9-1.8-3.9-4.5c0-2.2,0.8-4.8,1.6-6.7l-0.1-0.1l-3.2,2.8l-0.7-2.6c3.7-3.1,7.2-6.5,9.5-10.8
		c-3.8,0-2.6-0.3-5.9,0.3l0.7-1.2c3.4-5.9,3.9-7,10.6-7.3c1.9-2.8,3.2-5.9,6.9-5.9c0.8,0,2,0.2,2,1.3c0,1.2-1.8,3.4-2.4,4.4
		L350.2,29.8z"/>
	<path d="M368.5,46.3l0.6,2.6c-3.8,4.1-10.6,10.2-15.6,10c-4.2-0.2-8.8-2.8-9.9-7.7c-0.4,0.4-0.8,0.9-1.4,0.9
		c-0.6,0-1.1-0.7-1.1-1.3c0-0.9,1-1.8,1.5-2.4l13.6-13.4c0.1-2.2,1.3-4.4,3.6-4.4c1.9,0,2.2,0.6,2.4,2.5c0.2,2.6,1.2,4.9,1.2,7.8
		c0,5.5-4.1,9.6-8.1,12.3c4,0.7,6.4-1.3,9.5-3.8L368.5,46.3z M347.3,47.7c2.3,0.1,3.7,2.2,4.9,4c3.7-2.5,4.7-3.6,4.9-7.5
		c-0.2-1.4-0.4-3.2-0.8-5.5L347.3,47.7z"/>
</g>
</svg>
